<svg width="32" height="32" viewBox="0 0 32 32" fill="none" xmlns="http://www.w3.org/2000/svg">
<path d="M16.184 6.37122H14.5789V10.7795H16.184V6.37122Z" fill="#CFF1FF"/>
<path d="M0.957943 21.8721H23.245L30.1158 19.3929L26.8041 27.6172H0.951599L0.957943 21.8721Z" fill="#4CC3F2"/>
<path d="M12.4472 30.7308H8.17761V32H12.4472V30.7308Z" fill="#0A557F"/>
<path d="M7.22604 30.7308H6.27441V32H7.22604V30.7308Z" fill="#0A557F"/>
<path d="M27.7811 0H23.5115V1.26917H27.7811V0Z" fill="#0A557F"/>
<path d="M22.5599 0H21.6083V1.26917H22.5599V0Z" fill="#0A557F"/>
<path d="M11.0262 12.0486H19.7367V13.5716H16.0064V14.8408H22.5218V16.3554H19.7367V20.6028H11.0262V12.0486Z" fill="#4CC3F2"/>
<path d="M25.2879 19.8245V16.3554H23.4798V13.5717H20.6947V10.788H17.142V9.44265H19.2355V8.17348H17.142V5.11055H15.8668V3.84138C17.2498 3.53678 18.3029 1.93762 18.3029 0.00848389H17.3513C17.3513 1.45534 16.4695 2.62297 15.391 2.62297C14.3061 2.62297 13.4306 1.44688 13.4306 0.00848389H12.479C12.479 1.93762 13.5385 3.53678 14.9151 3.84138V5.11055H13.64V8.17348H11.5464V9.44265H13.64V10.788H10.0872V13.5717H8.39334V11.3887H7.44171V13.5717H4.7835V20.6029H0.00634418L0 28.8779H27.3688L32 17.3876L25.2879 19.8245ZM24.3362 17.6246V20.1629L23.1245 20.6029H20.6883V17.6246H24.3362ZM14.5789 6.37125H16.184V10.7795H14.5789V6.37125ZM11.0262 12.0487H19.7367V13.5632H16.0063V14.8324H22.5218V16.3469H19.7367V20.5944H11.0262V12.0487ZM5.73513 14.8408H10.0809V16.3554H8.59001V17.6246H10.0809V20.6029H5.73513V14.8408ZM23.245 25.375L28.46 23.4881L26.7978 27.6087H0.951626L0.95797 21.872H23.2514L30.1158 19.3929L29.0817 21.9567L23.1245 24.1142H4.80888V25.3834H23.245V25.375Z" fill="#0A557F"/>
<path d="M15.0547 13.5717H14.1031V14.8408H15.0547V13.5717Z" fill="white"/>
<path d="M7.63205 16.3553H6.68042V17.6245H7.63205V16.3553Z" fill="#0A557F"/>
<path d="M3.85727 24.1058H2.90564V25.3749H3.85727V24.1058Z" fill="white"/>
</svg>
